<mxfile host="Electron" agent="Mozilla/5.0 (Windows NT 10.0; Win64; x64) AppleWebKit/537.36 (KHTML, like Gecko) draw.io/28.0.6 Chrome/138.0.7204.100 Electron/37.2.3 Safari/537.36" version="28.0.6">
  <diagram id="beige-3d-kugel-1" name="Page-1">
    <mxGraphModel dx="679" dy="400" grid="1" gridSize="10" guides="1" tooltips="1" connect="1" arrows="1" fold="1" page="1" pageScale="1" pageWidth="827" pageHeight="1169" background="#E6E6E6" math="0" shadow="0">
      <root>
        <mxCell id="0" />
        <mxCell id="1" parent="0" />
        <mxCell id="D740RyAc8aHeoGbtp907-47" value="" style="endArrow=none;html=1;rounded=1;entryX=0.5;entryY=0.5;entryDx=0;entryDy=0;entryPerimeter=0;strokeWidth=1.9685;shape=filledEdge;exitX=0.5;exitY=0.5;exitDx=0;exitDy=0;exitPerimeter=0;" edge="1" parent="1" source="D740RyAc8aHeoGbtp907-21" target="D740RyAc8aHeoGbtp907-17">
          <mxGeometry width="50" height="50" relative="1" as="geometry">
            <mxPoint x="480" y="440" as="sourcePoint" />
            <mxPoint x="160" y="440" as="targetPoint" />
          </mxGeometry>
        </mxCell>
        <mxCell id="D740RyAc8aHeoGbtp907-46" value="" style="endArrow=none;html=1;rounded=1;entryX=0.5;entryY=0.5;entryDx=0;entryDy=0;entryPerimeter=0;strokeWidth=1.9685;shape=filledEdge;exitX=0.5;exitY=0.5;exitDx=0;exitDy=0;exitPerimeter=0;" edge="1" parent="1" source="D740RyAc8aHeoGbtp907-16" target="D740RyAc8aHeoGbtp907-12">
          <mxGeometry width="50" height="50" relative="1" as="geometry">
            <mxPoint x="650" y="300" as="sourcePoint" />
            <mxPoint x="330" y="300" as="targetPoint" />
          </mxGeometry>
        </mxCell>
        <mxCell id="D740RyAc8aHeoGbtp907-45" value="" style="endArrow=none;html=1;rounded=1;entryX=0.5;entryY=0.5;entryDx=0;entryDy=0;entryPerimeter=0;strokeWidth=1.9685;shape=filledEdge;exitX=0.5;exitY=0.5;exitDx=0;exitDy=0;exitPerimeter=0;" edge="1" parent="1" source="D740RyAc8aHeoGbtp907-11" target="D740RyAc8aHeoGbtp907-7">
          <mxGeometry width="50" height="50" relative="1" as="geometry">
            <mxPoint x="520" y="450" as="sourcePoint" />
            <mxPoint x="220" y="450" as="targetPoint" />
          </mxGeometry>
        </mxCell>
        <mxCell id="D740RyAc8aHeoGbtp907-44" value="" style="endArrow=none;html=1;rounded=1;entryX=0.5;entryY=0.5;entryDx=0;entryDy=0;entryPerimeter=0;strokeWidth=1.9685;shape=filledEdge;" edge="1" parent="1" source="D740RyAc8aHeoGbtp907-4" target="sphere">
          <mxGeometry width="50" height="50" relative="1" as="geometry">
            <mxPoint x="540" y="490" as="sourcePoint" />
            <mxPoint x="540" y="330" as="targetPoint" />
          </mxGeometry>
        </mxCell>
        <mxCell id="D740RyAc8aHeoGbtp907-43" value="" style="endArrow=none;html=1;rounded=1;entryX=0.5;entryY=0.5;entryDx=0;entryDy=0;entryPerimeter=0;strokeWidth=1.9685;shape=filledEdge;exitX=0.5;exitY=0.5;exitDx=0;exitDy=0;exitPerimeter=0;" edge="1" parent="1" source="D740RyAc8aHeoGbtp907-23" target="D740RyAc8aHeoGbtp907-21">
          <mxGeometry width="50" height="50" relative="1" as="geometry">
            <mxPoint x="480" y="490" as="sourcePoint" />
            <mxPoint x="480" y="330" as="targetPoint" />
          </mxGeometry>
        </mxCell>
        <mxCell id="D740RyAc8aHeoGbtp907-42" value="" style="endArrow=none;html=1;rounded=1;strokeWidth=1.9685;shape=filledEdge;exitX=0.5;exitY=0.5;exitDx=0;exitDy=0;exitPerimeter=0;" edge="1" parent="1" source="D740RyAc8aHeoGbtp907-22">
          <mxGeometry width="50" height="50" relative="1" as="geometry">
            <mxPoint x="370" y="420" as="sourcePoint" />
            <mxPoint x="460" y="220" as="targetPoint" />
          </mxGeometry>
        </mxCell>
        <mxCell id="D740RyAc8aHeoGbtp907-41" value="" style="endArrow=none;html=1;rounded=1;entryX=0.5;entryY=0.5;entryDx=0;entryDy=0;entryPerimeter=0;strokeWidth=1.9685;shape=filledEdge;exitX=0.5;exitY=0.5;exitDx=0;exitDy=0;exitPerimeter=0;" edge="1" parent="1" source="D740RyAc8aHeoGbtp907-4" target="D740RyAc8aHeoGbtp907-11">
          <mxGeometry width="50" height="50" relative="1" as="geometry">
            <mxPoint x="350" y="380" as="sourcePoint" />
            <mxPoint x="350" y="140" as="targetPoint" />
          </mxGeometry>
        </mxCell>
        <mxCell id="D740RyAc8aHeoGbtp907-40" value="" style="endArrow=none;html=1;rounded=1;entryX=0.5;entryY=0.5;entryDx=0;entryDy=0;entryPerimeter=0;strokeWidth=1.9685;shape=filledEdge;exitX=0.5;exitY=0.5;exitDx=0;exitDy=0;exitPerimeter=0;" edge="1" parent="1" source="D740RyAc8aHeoGbtp907-3" target="D740RyAc8aHeoGbtp907-10">
          <mxGeometry width="50" height="50" relative="1" as="geometry">
            <mxPoint x="340" y="430" as="sourcePoint" />
            <mxPoint x="340" y="190" as="targetPoint" />
          </mxGeometry>
        </mxCell>
        <mxCell id="D740RyAc8aHeoGbtp907-39" value="" style="endArrow=none;html=1;rounded=1;entryX=0.5;entryY=0.5;entryDx=0;entryDy=0;entryPerimeter=0;strokeWidth=1.9685;shape=filledEdge;exitX=0.5;exitY=0.5;exitDx=0;exitDy=0;exitPerimeter=0;" edge="1" parent="1" source="D740RyAc8aHeoGbtp907-2" target="D740RyAc8aHeoGbtp907-9">
          <mxGeometry width="50" height="50" relative="1" as="geometry">
            <mxPoint x="120" y="430" as="sourcePoint" />
            <mxPoint x="120" y="270" as="targetPoint" />
          </mxGeometry>
        </mxCell>
        <mxCell id="D740RyAc8aHeoGbtp907-38" value="" style="endArrow=none;html=1;rounded=1;entryX=0.5;entryY=0.5;entryDx=0;entryDy=0;entryPerimeter=0;strokeWidth=1.9685;shape=filledEdge;exitX=0.5;exitY=0.5;exitDx=0;exitDy=0;exitPerimeter=0;" edge="1" parent="1" source="D740RyAc8aHeoGbtp907-4" target="D740RyAc8aHeoGbtp907-23">
          <mxGeometry width="50" height="50" relative="1" as="geometry">
            <mxPoint x="160" y="570" as="sourcePoint" />
            <mxPoint x="160" y="410" as="targetPoint" />
          </mxGeometry>
        </mxCell>
        <mxCell id="D740RyAc8aHeoGbtp907-37" value="" style="endArrow=none;html=1;rounded=1;entryX=0.5;entryY=0.5;entryDx=0;entryDy=0;entryPerimeter=0;strokeWidth=1.9685;shape=filledEdge;exitX=0.5;exitY=0.5;exitDx=0;exitDy=0;exitPerimeter=0;" edge="1" parent="1" source="D740RyAc8aHeoGbtp907-7" target="D740RyAc8aHeoGbtp907-17">
          <mxGeometry width="50" height="50" relative="1" as="geometry">
            <mxPoint x="160" y="560" as="sourcePoint" />
            <mxPoint x="160" y="480" as="targetPoint" />
          </mxGeometry>
        </mxCell>
        <mxCell id="D740RyAc8aHeoGbtp907-36" value="" style="endArrow=none;html=1;rounded=1;strokeWidth=1.9685;shape=filledEdge;exitX=0.5;exitY=0.5;exitDx=0;exitDy=0;exitPerimeter=0;" edge="1" parent="1" source="D740RyAc8aHeoGbtp907-1">
          <mxGeometry width="50" height="50" relative="1" as="geometry">
            <mxPoint x="100" y="480" as="sourcePoint" />
            <mxPoint x="140" y="300" as="targetPoint" />
          </mxGeometry>
        </mxCell>
        <mxCell id="D740RyAc8aHeoGbtp907-35" value="" style="endArrow=none;html=1;rounded=1;entryX=0.5;entryY=0.5;entryDx=0;entryDy=0;entryPerimeter=0;strokeWidth=1.9685;shape=filledEdge;exitX=0.5;exitY=0.5;exitDx=0;exitDy=0;exitPerimeter=0;" edge="1" parent="1" source="sphere" target="D740RyAc8aHeoGbtp907-7">
          <mxGeometry width="50" height="50" relative="1" as="geometry">
            <mxPoint x="220" y="610" as="sourcePoint" />
            <mxPoint x="460" y="370" as="targetPoint" />
          </mxGeometry>
        </mxCell>
        <mxCell id="D740RyAc8aHeoGbtp907-34" value="" style="endArrow=none;html=1;rounded=1;entryX=0.5;entryY=0.5;entryDx=0;entryDy=0;entryPerimeter=0;strokeWidth=1.9685;shape=filledEdge;exitX=0.5;exitY=0.5;exitDx=0;exitDy=0;exitPerimeter=0;" edge="1" parent="1" source="D740RyAc8aHeoGbtp907-11" target="D740RyAc8aHeoGbtp907-21">
          <mxGeometry width="50" height="50" relative="1" as="geometry">
            <mxPoint x="470" y="580" as="sourcePoint" />
            <mxPoint x="710" y="340" as="targetPoint" />
          </mxGeometry>
        </mxCell>
        <mxCell id="D740RyAc8aHeoGbtp907-33" value="" style="endArrow=none;html=1;rounded=1;entryX=0.5;entryY=0.5;entryDx=0;entryDy=0;entryPerimeter=0;strokeWidth=1.9685;shape=filledEdge;exitX=0.5;exitY=0.5;exitDx=0;exitDy=0;exitPerimeter=0;" edge="1" parent="1" source="D740RyAc8aHeoGbtp907-10" target="D740RyAc8aHeoGbtp907-20">
          <mxGeometry width="50" height="50" relative="1" as="geometry">
            <mxPoint x="550" y="610" as="sourcePoint" />
            <mxPoint x="790" y="370" as="targetPoint" />
          </mxGeometry>
        </mxCell>
        <mxCell id="D740RyAc8aHeoGbtp907-32" value="" style="endArrow=none;html=1;rounded=1;entryX=0.5;entryY=0.5;entryDx=0;entryDy=0;entryPerimeter=0;strokeWidth=1.9685;shape=filledEdge;exitX=0.5;exitY=0.5;exitDx=0;exitDy=0;exitPerimeter=0;" edge="1" parent="1" source="D740RyAc8aHeoGbtp907-9" target="D740RyAc8aHeoGbtp907-19">
          <mxGeometry width="50" height="50" relative="1" as="geometry">
            <mxPoint x="260" y="430" as="sourcePoint" />
            <mxPoint x="500" y="190" as="targetPoint" />
          </mxGeometry>
        </mxCell>
        <mxCell id="D740RyAc8aHeoGbtp907-31" value="" style="endArrow=none;html=1;rounded=1;entryX=0.5;entryY=0.5;entryDx=0;entryDy=0;entryPerimeter=0;strokeWidth=1.9685;shape=filledEdge;exitX=0.5;exitY=0.5;exitDx=0;exitDy=0;exitPerimeter=0;" edge="1" parent="1" source="D740RyAc8aHeoGbtp907-8" target="D740RyAc8aHeoGbtp907-18">
          <mxGeometry width="50" height="50" relative="1" as="geometry">
            <mxPoint x="60" y="380" as="sourcePoint" />
            <mxPoint x="110" y="330" as="targetPoint" />
          </mxGeometry>
        </mxCell>
        <mxCell id="sphere" value="" style="shape=ellipse;fillColor=#f5f0e6;gradientColor=#e5dccb;gradientDirection=south;strokeColor=#c9b89f;strokeWidth=2;shadow=1;aspect=fixed;" parent="1" vertex="1">
          <mxGeometry x="40" y="360" width="40" height="40" as="geometry" />
        </mxCell>
        <mxCell id="D740RyAc8aHeoGbtp907-2" value="" style="shape=ellipse;fillColor=#f5f0e6;gradientColor=#e5dccb;gradientDirection=south;strokeColor=#c9b89f;strokeWidth=2;shadow=1;aspect=fixed;" vertex="1" parent="1">
          <mxGeometry x="200" y="360" width="40" height="40" as="geometry" />
        </mxCell>
        <mxCell id="D740RyAc8aHeoGbtp907-3" value="" style="shape=ellipse;fillColor=#f5f0e6;gradientColor=#e5dccb;gradientDirection=south;strokeColor=#c9b89f;strokeWidth=2;shadow=1;aspect=fixed;" vertex="1" parent="1">
          <mxGeometry x="280" y="360" width="40" height="40" as="geometry" />
        </mxCell>
        <mxCell id="D740RyAc8aHeoGbtp907-4" value="" style="shape=ellipse;fillColor=#f5f0e6;gradientColor=#e5dccb;gradientDirection=south;strokeColor=#c9b89f;strokeWidth=2;shadow=1;aspect=fixed;" vertex="1" parent="1">
          <mxGeometry x="360" y="360" width="40" height="40" as="geometry" />
        </mxCell>
        <mxCell id="D740RyAc8aHeoGbtp907-7" value="" style="shape=ellipse;fillColor=#f5f0e6;gradientColor=#e5dccb;gradientDirection=south;strokeColor=#c9b89f;strokeWidth=2;shadow=1;aspect=fixed;" vertex="1" parent="1">
          <mxGeometry x="40" y="280" width="40" height="40" as="geometry" />
        </mxCell>
        <mxCell id="D740RyAc8aHeoGbtp907-8" value="" style="shape=ellipse;fillColor=#f5f0e6;gradientColor=#e5dccb;gradientDirection=south;strokeColor=#c9b89f;strokeWidth=2;shadow=1;aspect=fixed;" vertex="1" parent="1">
          <mxGeometry x="120" y="280" width="40" height="40" as="geometry" />
        </mxCell>
        <mxCell id="D740RyAc8aHeoGbtp907-9" value="" style="shape=ellipse;fillColor=#f5f0e6;gradientColor=#e5dccb;gradientDirection=south;strokeColor=#c9b89f;strokeWidth=2;shadow=1;aspect=fixed;" vertex="1" parent="1">
          <mxGeometry x="200" y="280" width="40" height="40" as="geometry" />
        </mxCell>
        <mxCell id="D740RyAc8aHeoGbtp907-10" value="" style="shape=ellipse;fillColor=#f5f0e6;gradientColor=#e5dccb;gradientDirection=south;strokeColor=#c9b89f;strokeWidth=2;shadow=1;aspect=fixed;" vertex="1" parent="1">
          <mxGeometry x="280" y="280" width="40" height="40" as="geometry" />
        </mxCell>
        <mxCell id="D740RyAc8aHeoGbtp907-11" value="" style="shape=ellipse;fillColor=#f5f0e6;gradientColor=#e5dccb;gradientDirection=south;strokeColor=#c9b89f;strokeWidth=2;shadow=1;aspect=fixed;" vertex="1" parent="1">
          <mxGeometry x="360" y="280" width="40" height="40" as="geometry" />
        </mxCell>
        <mxCell id="D740RyAc8aHeoGbtp907-12" value="" style="shape=ellipse;fillColor=#f5f0e6;gradientColor=#e5dccb;gradientDirection=south;strokeColor=#c9b89f;strokeWidth=2;shadow=1;aspect=fixed;" vertex="1" parent="1">
          <mxGeometry x="120" y="200" width="40" height="40" as="geometry" />
        </mxCell>
        <mxCell id="D740RyAc8aHeoGbtp907-13" value="" style="shape=ellipse;fillColor=#f5f0e6;gradientColor=#e5dccb;gradientDirection=south;strokeColor=#c9b89f;strokeWidth=2;shadow=1;aspect=fixed;" vertex="1" parent="1">
          <mxGeometry x="200" y="200" width="40" height="40" as="geometry" />
        </mxCell>
        <mxCell id="D740RyAc8aHeoGbtp907-14" value="" style="shape=ellipse;fillColor=#f5f0e6;gradientColor=#e5dccb;gradientDirection=south;strokeColor=#c9b89f;strokeWidth=2;shadow=1;aspect=fixed;" vertex="1" parent="1">
          <mxGeometry x="280" y="200" width="40" height="40" as="geometry" />
        </mxCell>
        <mxCell id="D740RyAc8aHeoGbtp907-15" value="" style="shape=ellipse;fillColor=#f5f0e6;gradientColor=#e5dccb;gradientDirection=south;strokeColor=#c9b89f;strokeWidth=2;shadow=1;aspect=fixed;" vertex="1" parent="1">
          <mxGeometry x="360" y="200" width="40" height="40" as="geometry" />
        </mxCell>
        <mxCell id="D740RyAc8aHeoGbtp907-16" value="" style="shape=ellipse;fillColor=#f5f0e6;gradientColor=#e5dccb;gradientDirection=south;strokeColor=#c9b89f;strokeWidth=2;shadow=1;aspect=fixed;" vertex="1" parent="1">
          <mxGeometry x="440" y="200" width="40" height="40" as="geometry" />
        </mxCell>
        <mxCell id="D740RyAc8aHeoGbtp907-17" value="" style="shape=ellipse;fillColor=#f5f0e6;gradientColor=#e5dccb;gradientDirection=south;strokeColor=#c9b89f;strokeWidth=2;shadow=1;aspect=fixed;" vertex="1" parent="1">
          <mxGeometry x="200" y="120" width="40" height="40" as="geometry" />
        </mxCell>
        <mxCell id="D740RyAc8aHeoGbtp907-18" value="" style="shape=ellipse;fillColor=#f5f0e6;gradientColor=#e5dccb;gradientDirection=south;strokeColor=#c9b89f;strokeWidth=2;shadow=1;aspect=fixed;" vertex="1" parent="1">
          <mxGeometry x="280" y="120" width="40" height="40" as="geometry" />
        </mxCell>
        <mxCell id="D740RyAc8aHeoGbtp907-19" value="" style="shape=ellipse;fillColor=#f5f0e6;gradientColor=#e5dccb;gradientDirection=south;strokeColor=#c9b89f;strokeWidth=2;shadow=1;aspect=fixed;" vertex="1" parent="1">
          <mxGeometry x="360" y="120" width="40" height="40" as="geometry" />
        </mxCell>
        <mxCell id="D740RyAc8aHeoGbtp907-20" value="" style="shape=ellipse;fillColor=#f5f0e6;gradientColor=#e5dccb;gradientDirection=south;strokeColor=#c9b89f;strokeWidth=2;shadow=1;aspect=fixed;" vertex="1" parent="1">
          <mxGeometry x="440" y="120" width="40" height="40" as="geometry" />
        </mxCell>
        <mxCell id="D740RyAc8aHeoGbtp907-21" value="" style="shape=ellipse;fillColor=#f5f0e6;gradientColor=#e5dccb;gradientDirection=south;strokeColor=#c9b89f;strokeWidth=2;shadow=1;aspect=fixed;" vertex="1" parent="1">
          <mxGeometry x="520" y="120" width="40" height="40" as="geometry" />
        </mxCell>
        <mxCell id="D740RyAc8aHeoGbtp907-22" value="" style="shape=ellipse;fillColor=#f5f0e6;gradientColor=#e5dccb;gradientDirection=south;strokeColor=#c9b89f;strokeWidth=2;shadow=1;aspect=fixed;" vertex="1" parent="1">
          <mxGeometry x="440" y="280" width="40" height="40" as="geometry" />
        </mxCell>
        <mxCell id="D740RyAc8aHeoGbtp907-23" value="" style="shape=ellipse;fillColor=#f5f0e6;gradientColor=#e5dccb;gradientDirection=south;strokeColor=#c9b89f;strokeWidth=2;shadow=1;aspect=fixed;" vertex="1" parent="1">
          <mxGeometry x="520" y="200" width="40" height="40" as="geometry" />
        </mxCell>
        <mxCell id="D740RyAc8aHeoGbtp907-1" value="" style="shape=ellipse;fillColor=#f5f0e6;gradientColor=#e5dccb;gradientDirection=south;strokeColor=#c9b89f;strokeWidth=2;shadow=1;aspect=fixed;" vertex="1" parent="1">
          <mxGeometry x="120" y="360" width="40" height="40" as="geometry" />
        </mxCell>
      </root>
    </mxGraphModel>
  </diagram>
</mxfile>
